<?xml version="1.0" standalone="no"?>
<!DOCTYPE svg PUBLIC "-//W3C//DTD SVG 20010904//EN"
 "http://www.w3.org/TR/2001/REC-SVG-20010904/DTD/svg10.dtd">
<svg version="1.0" xmlns="http://www.w3.org/2000/svg"
 width="500.000000pt" height="500.000000pt" viewBox="0 0 500.000000 500.000000"
 preserveAspectRatio="xMidYMid meet">

<g transform="translate(0.000000,500.000000) scale(0.100000,-0.100000)"
fill="#000000" stroke="none">
<path d="M1 4725 c0 -159 5 -275 10 -275 5 0 9 -11 9 -25 0 -14 -4 -25 -10
-25 -6 0 -10 -28 -10 -65 0 -51 3 -65 15 -65 9 0 15 -9 15 -25 0 -16 -6 -25
-15 -25 -12 0 -15 -13 -15 -60 0 -54 2 -60 21 -60 15 0 19 -5 15 -16 -3 -8 -2
-12 4 -9 6 3 10 -1 10 -9 0 -10 -9 -16 -25 -16 -25 0 -26 -2 -23 -57 3 -55 4
-58 30 -61 27 -3 28 -6 28 -58 l0 -54 40 0 c28 0 40 -4 40 -14 0 -23 12 -25
51 -12 22 8 45 9 59 4 19 -7 21 -6 11 5 -9 11 -4 14 23 13 18 -1 32 -5 30 -11
-3 -6 39 -9 116 -7 66 1 136 -2 155 -7 21 -6 35 -6 35 0 0 5 22 9 50 9 48 0
49 -1 56 -35 3 -19 10 -38 15 -41 5 -3 7 -10 4 -15 -4 -5 0 -9 7 -9 8 0 6 -5
-4 -11 -10 -5 -18 -17 -18 -25 0 -9 -6 -28 -14 -42 -16 -32 -35 -85 -46 -128
-8 -36 -41 -94 -51 -94 -4 0 -10 -12 -12 -27 l-4 -28 -2 28 -1 27 -207 -2
-208 -3 3 -80 c5 -137 -3 -129 110 -122 53 4 285 7 514 7 357 0 417 2 412 14
-7 17 32 41 41 26 3 -5 2 -10 -3 -10 -6 0 -12 -7 -16 -15 -5 -13 4 -15 57 -12
45 2 61 7 59 16 -2 8 3 11 13 8 8 -4 15 -2 15 3 0 6 -13 10 -30 10 -43 0 -41
30 3 31 31 2 30 2 -7 8 -23 3 -41 12 -43 21 -3 9 -1 11 4 5 12 -15 73 -13 73
3 0 6 -4 12 -9 12 -5 0 -23 12 -40 26 -31 26 -33 51 -3 39 12 -4 10 1 -6 18
-12 13 -22 31 -22 40 0 10 -10 22 -22 27 -17 6 -19 9 -6 9 11 1 15 6 12 16 -9
23 -62 15 -79 -12 -14 -20 -14 -22 2 -17 13 4 11 0 -4 -12 -13 -9 -23 -26 -23
-38 0 -28 -32 -75 -61 -90 -14 -7 -23 -19 -21 -29 2 -12 -2 -15 -13 -11 -9 4
-14 12 -11 19 2 7 -1 18 -7 24 -8 8 -7 11 6 11 16 0 57 37 57 51 0 4 -9 11
-20 14 -27 9 -26 25 2 17 16 -4 20 -2 15 10 -3 9 0 21 6 27 9 9 8 11 -5 6 -11
-4 -18 -2 -18 4 0 6 5 11 11 11 5 0 7 5 3 11 -4 8 0 9 15 4 30 -9 37 17 21 78
-14 55 -17 62 -78 163 -35 59 -43 82 -47 133 -2 42 0 61 8 61 7 0 6 4 -3 10
-12 8 -9 10 14 10 24 0 28 3 22 23 -3 12 -6 39 -6 60 0 30 -4 37 -19 37 -17 0
-31 18 -31 41 0 5 12 9 26 9 24 0 26 3 20 31 -3 17 -6 44 -6 60 0 22 -5 29
-20 29 -15 0 -20 7 -20 25 0 19 5 25 21 25 20 0 21 4 15 46 -3 26 -6 53 -6 60
0 8 -9 14 -20 14 -30 0 -28 47 3 52 12 2 21 6 20 11 -2 4 -3 30 -3 57 0 47 -2
50 -25 50 -21 0 -25 5 -25 30 0 23 4 30 20 30 18 0 20 7 20 60 0 57 -1 60 -25
60 -36 0 -36 45 0 54 19 5 25 13 25 35 0 47 -12 91 -24 90 -27 -3 -36 3 -36
25 0 18 7 26 23 29 12 2 -211 5 -496 6 l-517 1 1 -275z m559 261 c0 -2 -8 -10
-17 -17 -16 -13 -17 -12 -4 4 13 16 21 21 21 13z m257 -13 c5 -13 -56 -33 -97
-33 -20 0 -22 2 -10 10 8 5 23 7 34 4 12 -4 16 -2 12 5 -4 6 -4 16 -1 22 9 13
57 8 62 -8z m130 -13 c1 -20 -3 -26 -20 -27 -22 -2 -22 -2 -2 13 18 14 18 14
-10 9 -17 -3 -36 -1 -44 4 -23 15 -2 32 37 30 32 -2 37 -6 39 -29z m-257 -6
c0 -2 -7 -4 -15 -4 -8 0 -15 4 -15 10 0 5 7 7 15 4 8 -4 15 -8 15 -10z m174
-3 c3 -5 -10 -11 -29 -13 -27 -3 -32 -1 -23 9 12 15 44 17 52 4z m-351 -8 c-7
-2 -19 -2 -25 0 -7 3 -2 5 12 5 14 0 19 -2 13 -5z m-246 -73 c2 -11 -1 -20 -6
-20 -10 0 -21 36 -13 44 8 8 15 -1 19 -24z m61 2 c2 -15 -2 -22 -12 -22 -11 0
-16 9 -16 26 0 31 23 28 28 -4z m28 3 c0 -14 -4 -25 -8 -25 -4 0 -8 11 -8 25
0 14 4 25 8 25 4 0 8 -11 8 -25z m39 15 c3 -5 0 -10 -7 -11 -10 0 -10 -2 0 -6
17 -7 15 -23 -3 -23 -9 0 -15 9 -15 25 0 25 14 33 25 15z m35 1 c0 -5 3 -16 6
-25 4 -11 1 -16 -10 -16 -10 0 -16 9 -16 25 0 14 5 25 10 25 6 0 10 -4 10 -9z
m36 -16 c0 -28 -11 -33 -20 -9 -9 24 -7 34 7 34 7 0 13 -11 13 -25z m34 16 c0
-5 3 -16 6 -25 4 -11 1 -16 -10 -16 -10 0 -16 9 -16 25 0 14 5 25 10 25 6 0
10 -4 10 -9z m40 -16 c0 -14 -4 -25 -9 -25 -5 0 -11 11 -13 25 -4 17 -1 25 8
25 8 0 14 -11 14 -25z m40 -12 c0 -7 -7 -13 -15 -13 -15 0 -21 31 -8 43 8 8
23 -12 23 -30z m30 12 c0 -14 -4 -25 -10 -25 -5 0 -10 11 -10 25 0 14 5 25 10
25 6 0 10 -11 10 -25z m-518 -10 c-2 -14 -6 -25 -7 -25 -1 0 -5 11 -7 25 -3
16 -1 25 7 25 8 0 10 -9 7 -25z m38 0 c0 -14 -4 -25 -10 -25 -5 0 -10 11 -10
25 0 14 5 25 10 25 6 0 10 -11 10 -25z m40 0 c0 -18 -4 -23 -15 -19 -8 4 -15
15 -15 25 0 10 7 19 15 19 9 0 15 -9 15 -25z m30 3 c0 -19 -2 -20 -10 -8 -13
19 -13 30 0 30 6 0 10 -10 10 -22z m33 2 c3 -13 0 -20 -9 -20 -8 0 -14 9 -14
20 0 11 4 20 9 20 5 0 11 -9 14 -20z m426 -69 c12 -8 9 -11 -13 -17 -17 -4
-32 -2 -39 6 -9 10 -9 11 0 6 6 -3 14 -2 18 4 8 12 16 12 34 1z m137 -11 c20
-12 39 -19 42 -16 2 3 -3 8 -12 12 -29 11 -17 24 24 24 22 0 40 -4 40 -8 0
-16 -59 -42 -95 -42 -32 0 -36 2 -25 15 16 19 1 19 -24 0 -11 -8 -38 -15 -60
-15 -38 1 -40 2 -22 15 13 10 23 12 30 5 5 -5 16 -10 24 -10 11 0 12 3 3 13
-26 32 22 36 75 7z m162 -2 c-2 -19 -10 -23 -48 -26 -48 -3 -47 6 2 33 36 20
50 18 46 -7z m-568 2 c0 -5 -2 -10 -4 -10 -3 0 -8 5 -11 10 -3 6 -1 10 4 10 6
0 11 -4 11 -10z m140 0 c0 -5 -7 -10 -16 -10 -8 0 -12 5 -9 10 3 6 10 10 16
10 5 0 9 -4 9 -10z m79 -27 c2 -2 -16 -3 -40 -3 -43 1 -43 1 -19 15 19 10 29
11 40 2 8 -6 17 -13 19 -14z m-465 9 c3 -5 -1 -9 -9 -9 -8 0 -12 4 -9 9 3 4 7
8 9 8 2 0 6 -4 9 -8z m211 -2 c3 -6 -1 -7 -9 -4 -18 7 -21 14 -7 14 6 0 13 -4
16 -10z m130 1 c3 -6 -3 -9 -14 -8 -11 0 -17 5 -15 9 7 11 22 10 29 -1z m-276
-84 c0 -21 -1 -21 -9 -2 -12 28 -12 37 0 30 6 -3 10 -16 9 -28z m41 -4 c0 -7
-6 -13 -14 -13 -9 0 -12 8 -8 26 3 19 7 22 13 12 5 -7 9 -19 9 -25z m30 22 c0
-8 0 -18 1 -22 0 -4 -4 -9 -10 -11 -6 -2 -11 8 -11 22 0 14 5 26 10 26 6 0 10
-7 10 -15z m60 -10 c0 -14 -4 -25 -9 -25 -12 0 -23 29 -15 41 10 18 24 9 24
-16z m30 5 c0 -11 5 -20 11 -20 6 0 9 7 5 15 -3 8 -2 15 3 15 5 0 11 -9 14
-20 4 -17 0 -20 -24 -20 -24 0 -29 4 -29 25 0 14 5 25 10 25 6 0 10 -9 10 -20z
m70 0 c0 -11 4 -20 9 -20 5 0 7 9 4 20 -4 14 0 20 11 20 10 0 16 -9 16 -25 0
-21 -5 -25 -30 -25 -25 0 -30 4 -30 25 0 14 5 25 10 25 6 0 10 -9 10 -20z m79
-22 c1 -5 -6 -8 -14 -8 -15 0 -21 31 -8 44 7 6 20 -17 22 -36z m31 17 c0 -14
-4 -25 -10 -25 -5 0 -10 11 -10 25 0 14 5 25 10 25 6 0 10 -11 10 -25z m-440
-7 c0 -19 -2 -20 -10 -8 -13 19 -13 30 0 30 6 0 10 -10 10 -22z m38 0 c-2 -13
-7 -23 -13 -23 -5 0 -11 10 -13 23 -2 15 2 22 13 22 11 0 15 -7 13 -22z m32 2
c0 -11 -4 -20 -10 -20 -5 0 -10 9 -10 20 0 11 5 20 10 20 6 0 10 -9 10 -20z
m770 -60 c0 -5 -9 -14 -20 -20 -16 -9 -24 -7 -38 6 -16 17 -16 17 4 12 12 -3
28 -2 35 3 18 11 19 11 19 -1z m-137 -17 c-4 -11 -8 -11 -22 -1 -9 7 -17 13
-19 14 -2 1 8 2 22 2 17 0 23 -5 19 -15z m68 -4 c30 -16 12 -29 -37 -27 l-45
1 28 19 c33 21 29 21 54 7z m89 -8 c0 -15 -7 -19 -30 -19 l-31 1 28 18 c34 23
33 23 33 0z m-762 -3 c-2 -6 -15 -13 -27 -15 -20 -3 -22 -1 -11 12 15 18 43
20 38 3z m132 -9 c0 -12 -57 -12 -65 0 -3 5 5 11 17 13 28 5 48 -1 48 -13z
m334 0 c-7 -12 -61 -12 -69 0 -3 5 7 11 22 13 35 4 55 -1 47 -13z m111 6 c0
-12 -40 -19 -61 -11 -9 3 -12 11 -9 16 8 14 70 9 70 -5z m-705 -11 c0 -8 -4
-12 -10 -9 -5 3 -10 10 -10 16 0 5 5 9 10 9 6 0 10 -7 10 -16z m375 6 c-3 -5
-19 -10 -35 -10 -16 0 -32 5 -35 10 -4 6 10 10 35 10 25 0 39 -4 35 -10z m105
0 c0 -5 -16 -10 -35 -10 -19 0 -35 5 -35 10 0 6 16 10 35 10 19 0 35 -4 35
-10z m-440 -65 c0 -8 0 -18 1 -22 0 -4 -4 -9 -10 -11 -6 -2 -11 8 -11 22 0 14
5 26 10 26 6 0 10 -7 10 -15z m32 -10 c-2 -14 -6 -25 -7 -25 -1 0 -5 11 -7 25
-3 16 -1 25 7 25 8 0 10 -9 7 -25z m38 0 c0 -14 -4 -25 -10 -25 -5 0 -10 11
-10 25 0 14 5 25 10 25 6 0 10 -11 10 -25z m38 1 c-2 -12 -7 -21 -13 -21 -5 0
-11 9 -13 21 -2 13 3 21 13 21 10 0 15 -8 13 -21z m32 -1 c0 -14 -4 -25 -10
-25 -5 0 -10 11 -10 25 0 14 5 25 10 25 6 0 10 -11 10 -25z m35 0 c0 -14 -3
-25 -7 -25 -5 0 -8 4 -8 9 0 5 -3 16 -6 25 -4 10 -1 16 7 16 8 0 14 -11 14
-25z m27 0 c3 -14 1 -25 -3 -25 -5 0 -9 11 -9 25 0 14 2 25 4 25 2 0 6 -11 8
-25z m561 -66 c-8 -8 -16 -8 -30 0 -16 9 -14 10 12 11 21 0 26 -3 18 -11z
m-48 -13 c18 -13 18 -14 -2 -20 -30 -10 -56 3 -42 20 14 17 20 17 44 0z m114
5 c19 -12 5 -31 -24 -31 -13 0 -27 5 -31 11 -7 11 12 29 31 29 6 0 16 -4 24
-9z m-794 -39 c-3 -3 -11 0 -18 7 -9 10 -8 11 6 5 10 -3 15 -9 12 -12z m133
-57 c-1 -14 -6 -25 -10 -25 -4 0 -8 11 -8 25 0 14 4 25 10 25 5 0 9 -11 8 -25z
m53 -22 c-9 -17 -10 -17 -16 0 -4 9 -4 25 0 35 6 16 7 16 16 0 7 -12 7 -24 0
-35z m39 22 c0 -30 -15 -33 -23 -5 -4 16 1 23 21 29 1 1 2 -10 2 -24z m27 5
c-3 -10 0 -21 7 -24 6 -2 3 -5 -6 -5 -13 -1 -18 7 -18 24 0 14 5 25 11 25 6 0
9 -9 6 -20z m33 -13 c0 -18 -2 -19 -10 -7 -13 20 -13 43 0 35 6 -3 10 -16 10
-28z m26 -15 c-11 -10 -15 4 -8 28 l7 25 3 -23 c2 -13 1 -26 -2 -30z m39 8
c-3 -6 -10 -10 -16 -10 -10 0 -12 33 -2 44 9 9 26 -22 18 -34z m-375 16 c0 -8
-4 -18 -10 -21 -5 -3 -10 3 -10 14 0 12 5 21 10 21 6 0 10 -6 10 -14z m40 2
c0 6 7 12 15 12 8 0 15 -8 15 -18 0 -14 -8 -19 -30 -20 -18 0 -30 4 -30 12 0
20 13 28 22 14 6 -10 8 -10 8 0z m88 -11 c2 -10 -3 -17 -12 -17 -10 0 -16 9
-16 21 0 24 23 21 28 -4z m722 -78 c0 -18 -2 -20 -15 -9 -13 11 -13 15 -3 21
18 12 18 12 18 -12z m-70 6 c0 -2 -9 -9 -19 -15 -14 -7 -22 -7 -27 2 -4 6 -3
8 2 5 6 -3 16 -2 24 4 17 10 20 11 20 4z m33 -22 c-7 -2 -19 -2 -25 0 -7 3 -2
5 12 5 14 0 19 -2 13 -5z m-793 -78 c0 -14 -4 -25 -9 -25 -5 0 -8 11 -8 25 0
14 3 25 8 25 5 0 9 -11 9 -25z m26 9 c-3 -8 -2 -12 4 -9 6 3 7 -1 4 -9 -3 -9
-10 -13 -15 -10 -13 8 -11 44 2 44 6 0 8 -7 5 -16z m37 -4 c3 -11 2 -20 -3
-20 -4 0 -10 9 -13 20 -3 11 -2 20 3 20 4 0 10 -9 13 -20z m24 -12 c-3 -7 -5
-2 -5 12 0 14 2 19 5 13 2 -7 2 -19 0 -25z m33 12 c0 -11 -4 -20 -10 -20 -5 0
-10 9 -10 20 0 11 5 20 10 20 6 0 10 -9 10 -20z m40 -1 c0 -24 -23 -21 -28 4
-2 10 3 17 12 17 10 0 16 -9 16 -21z m33 1 c3 -13 0 -20 -9 -20 -8 0 -14 9
-14 20 0 11 4 20 9 20 5 0 11 -9 14 -20z m513 -83 c1 -9 -10 -13 -31 -13 -38
1 -37 16 1 16 17 0 23 4 18 13 -4 6 -3 8 1 4 5 -4 10 -13 11 -20z m118 14 c3
-5 -5 -11 -19 -13 -20 -4 -23 -3 -14 8 13 16 25 18 33 5z m-114 -45 c0 -2 -7
-7 -16 -10 -8 -3 -12 -2 -9 4 6 10 25 14 25 6z m-700 -48 c0 -7 -5 -20 -10
-28 -8 -12 -10 -9 -10 13 0 15 5 27 10 27 6 0 10 -6 10 -12z m21 -31 c-8 -8
-11 -5 -11 9 0 27 14 41 18 19 2 -9 -1 -22 -7 -28z m43 26 c4 -9 3 -20 -2 -25
-6 -6 -11 1 -14 16 -6 29 6 35 16 9z m66 -9 c0 -14 -4 -23 -10 -19 -5 3 -10
15 -10 26 0 10 5 19 10 19 6 0 10 -12 10 -26z m23 6 c3 -11 1 -20 -4 -20 -5 0
-9 9 -9 20 0 11 2 20 4 20 2 0 6 -9 9 -20z m677 -303 c0 -10 6 -28 14 -40 8
-12 16 -53 19 -92 3 -38 3 -60 1 -48 -3 12 -21 38 -40 57 -20 20 -33 40 -29
45 9 16 -113 101 -144 100 -24 0 -24 -1 -7 -12 53 -34 58 -46 8 -22 -29 14
-50 30 -47 35 13 21 69 41 120 43 32 1 51 6 48 12 -3 6 9 -6 26 -25 17 -19 31
-43 31 -53z m-105 -47 c3 -5 1 -10 -4 -10 -6 0 -11 5 -11 10 0 6 2 10 4 10 3
0 8 -4 11 -10z m-42 -17 c-22 -16 -28 -16 -42 1 -10 12 -7 14 23 13 32 -2 34
-4 19 -14z m267 -147 c0 -2 -8 -10 -17 -17 -16 -13 -17 -12 -4 4 13 16 21 21
21 13z m10 -36 c0 -5 -4 -10 -10 -10 -5 0 -10 5 -10 10 0 6 5 10 10 10 6 0 10
-4 10 -10z m-277 -17 c-7 -2 -21 -2 -30 0 -10 3 -4 5 12 5 17 0 24 -2 18 -5z
m446 -86 c8 -10 7 -14 -4 -14 -8 0 -15 6 -15 14 0 7 2 13 4 13 2 0 9 -6 15
-13z m-149 -57 c0 -5 -2 -10 -4 -10 -3 0 -8 5 -11 10 -3 6 -1 10 4 10 6 0 11
-4 11 -10z m-30 -26 c0 -2 -7 -4 -15 -4 -8 0 -15 4 -15 10 0 5 7 7 15 4 8 -4
15 -8 15 -10z m-29 -22 c-7 -2 -18 1 -23 6 -8 8 -4 9 13 5 13 -4 18 -8 10 -11z
m139 3 c0 -8 -7 -15 -15 -15 -8 0 -15 7 -15 15 0 8 7 15 15 15 8 0 15 -7 15
-15z m100 5 c0 -5 -10 -10 -22 -9 -22 0 -22 1 -3 9 11 5 21 9 23 9 1 1 2 -3 2
-9z m-372 -37 c-10 -2 -28 -2 -40 0 -13 2 -5 4 17 4 22 1 32 -1 23 -4z"/>
<path d="M728 4793 c7 -3 16 -2 19 1 4 3 -2 6 -13 5 -11 0 -14 -3 -6 -6z"/>
<path d="M2964 4908 c4 -50 4 -164 0 -252 l-7 -161 -32 67 c-26 53 -35 64 -45
55 -10 -9 -11 -9 -6 1 4 7 2 12 -6 12 -12 0 -118 72 -170 115 -52 43 -135 73
-210 78 -43 2 -78 0 -78 -5 0 -12 -64 -10 -77 3 -12 12 -93 3 -93 -11 0 -5 -9
-7 -20 -5 -11 2 -20 0 -20 -6 0 -5 -20 -9 -44 -9 -25 0 -47 -4 -50 -9 -3 -5
-22 -12 -42 -15 -19 -4 -50 -16 -67 -26 -18 -11 -59 -34 -91 -52 -109 -61
-118 -68 -122 -90 -4 -24 -30 -135 -35 -148 -1 -3 -4 -12 -6 -20 -3 -8 -11
-27 -19 -42 -8 -14 -14 -47 -14 -72 0 -25 -7 -71 -16 -103 -24 -92 -26 -103
-25 -200 l1 -93 -43 0 c-23 0 -49 -5 -57 -11 -11 -7 -1 -9 37 -7 29 1 52 -2
50 -8 -1 -5 -14 -9 -29 -9 -14 0 -30 -3 -34 -7 -4 -5 0 -8 8 -8 9 0 18 -9 21
-20 3 -11 2 -18 -3 -15 -7 5 -1 -125 6 -134 2 -2 4 22 4 55 1 44 3 55 11 42 5
-10 8 -30 6 -45 -2 -16 2 -39 9 -53 8 -17 12 -59 10 -120 -3 -113 -1 -120 30
-120 18 0 23 -5 21 -21 -1 -12 3 -24 10 -26 7 -3 9 3 6 16 -6 25 3 26 48 6 19
-8 26 -14 17 -15 -10 0 -18 -4 -18 -10 0 -5 -16 -10 -35 -10 -28 0 -35 -4 -35
-19 0 -24 17 -31 51 -19 15 5 35 5 50 -1 22 -9 21 -10 -14 -10 -27 -1 -36 -5
-31 -13 5 -8 2 -9 -12 -4 -10 4 -23 8 -29 9 -13 3 -7 -56 7 -64 6 -4 5 -9 -3
-12 -12 -5 52 -12 74 -8 4 0 7 -4 7 -10 0 -8 4 -8 13 -1 6 6 17 11 22 11 11 1
12 150 1 216 -5 34 -5 36 4 15 19 -44 51 -69 94 -74 98 -12 211 -15 196 -6
-11 7 -1 10 36 10 27 0 55 -5 61 -11 18 -18 79 117 92 203 16 98 25 118 50
111 16 -4 50 -63 36 -63 -14 0 73 -146 115 -190 77 -82 78 -123 4 -126 -24 0
-40 -8 -51 -23 -8 -13 -32 -30 -52 -38 -32 -14 -34 -17 -16 -23 11 -4 23 -6
27 -4 4 3 5 -8 3 -23 -2 -16 -2 -22 1 -15 7 15 44 16 44 1 0 -5 5 -7 12 -3 7
5 25 7 41 6 32 -3 60 15 50 31 -3 6 -1 7 5 3 7 -4 12 -2 12 3 0 6 8 11 17 11
13 0 14 3 5 12 -17 17 -16 63 1 48 6 -6 27 -22 46 -35 19 -14 30 -25 23 -25
-17 0 -15 -27 3 -34 28 -10 16 -35 -22 -45 -47 -13 -63 -14 -63 -2 0 12 -101
2 -118 -11 -7 -6 -63 -14 -125 -18 -62 -4 -125 -13 -140 -19 -51 -20 -69 -15
-65 19 2 16 -1 28 -7 27 -5 -1 -9 -5 -8 -8 1 -3 -5 -6 -13 -6 -20 0 -17 30 5
44 17 11 38 79 28 90 -11 11 -46 -19 -81 -70 -41 -59 -40 -71 6 -125 15 -18
28 -37 28 -42 0 -6 5 -10 10 -10 6 0 10 12 10 26 0 23 3 25 26 20 31 -8 94
-54 94 -69 0 -5 10 -18 22 -29 21 -18 39 -24 88 -30 14 -2 24 -9 22 -16 -2
-13 5 -15 61 -12 37 2 47 7 106 58 26 22 26 22 6 37 -12 10 -21 12 -23 5 -2
-5 -12 -10 -23 -10 -10 0 -19 -4 -19 -10 0 -5 -7 -10 -16 -10 -8 0 -12 -4 -9
-10 3 -5 -3 -10 -14 -10 -13 0 -21 7 -21 18 -1 12 -5 9 -16 -10 -8 -16 -17
-28 -19 -28 -9 0 -50 25 -57 35 -11 15 -10 37 2 30 6 -3 10 -1 10 4 0 6 -15
11 -32 11 -24 1 -38 8 -51 26 -11 14 -17 28 -14 30 10 10 87 12 93 3 3 -5 10
-6 16 -3 5 4 29 8 52 10 68 7 80 10 104 23 13 7 26 10 30 7 3 -3 14 1 24 11
17 15 18 14 18 -25 0 -35 -2 -39 -20 -35 -12 3 -20 0 -20 -6 0 -7 4 -10 9 -6
5 3 12 1 16 -5 7 -11 -43 -8 -63 4 -7 4 -12 3 -12 -2 0 -5 14 -15 31 -23 29
-11 33 -11 50 9 9 12 29 22 42 22 17 0 33 10 46 29 15 21 27 28 41 24 14 -4
20 0 20 11 0 21 9 20 26 -1 20 -27 34 1 30 60 -3 40 -1 47 15 47 19 0 24 16
11 36 -4 6 -15 10 -25 8 -11 -1 -16 0 -13 3 3 3 -34 24 -82 48 -48 23 -93 53
-100 65 -7 12 -12 23 -10 24 2 2 43 8 92 14 49 6 96 18 105 25 9 8 32 20 51
26 75 25 91 54 95 173 2 50 6 92 9 95 27 27 54 -69 59 -207 l2 -65 27 27 c25
24 28 33 26 87 -1 33 1 63 5 67 4 4 7 -4 7 -19 0 -23 19 -51 20 -30 1 4 3 42
6 83 3 56 2 71 -6 58 -6 -10 -16 -18 -22 -18 -9 0 -9 3 0 12 7 7 12 22 12 35
0 13 4 23 9 23 13 0 21 -26 22 -78 1 -26 3 -38 6 -27 3 11 12 25 20 32 17 13
8 37 -9 27 -7 -5 -8 -2 -4 5 5 7 14 10 21 7 7 -2 16 2 19 10 9 23 7 26 -6 18
-7 -4 -5 2 6 14 10 12 23 19 27 16 5 -3 9 2 9 12 0 13 3 14 15 4 8 -7 15 -21
15 -31 0 -15 8 -19 40 -19 38 0 40 2 40 31 0 17 4 28 10 24 5 -3 6 -13 3 -22
-5 -14 -1 -15 27 -10 18 4 36 7 41 7 5 0 9 4 9 10 0 5 -13 7 -30 4 -19 -4 -30
-2 -30 5 0 6 3 10 8 10 4 -1 39 -1 77 0 49 1 66 4 55 11 -11 7 1 10 40 9 40 0
49 -3 35 -9 -17 -7 -14 -9 15 -10 34 -1 34 -2 10 -12 -14 -6 -28 -10 -32 -10
-5 1 -8 -2 -8 -7 0 -5 10 -9 23 -9 38 -1 128 -11 136 -16 4 -3 26 -6 49 -7 31
-2 39 -6 31 -15 -7 -8 -2 -14 18 -19 26 -7 27 -8 8 -16 -12 -6 61 -8 188 -5
137 2 212 7 220 15 14 14 67 14 67 0 0 -7 11 -9 30 -5 19 3 30 1 30 -5 0 -8
23 -9 73 -5 39 3 89 2 110 -3 l37 -9 0 39 c0 42 15 56 77 70 28 6 33 4 33 -12
0 -14 7 -19 25 -19 22 0 25 -5 26 -37 1 -28 4 -20 12 30 7 54 13 67 27 67 15
0 19 16 27 118 l10 117 2 -160 c3 -215 2 -205 26 -206 18 0 17 -2 -5 -11 -25
-11 -25 -11 -2 -15 12 -3 22 -9 22 -15 0 -29 13 7 16 44 2 24 7 63 11 88 3 25
7 55 7 67 1 12 5 25 10 30 5 5 6 2 1 -6 -6 -10 -4 -12 4 -6 9 5 10 10 2 18
-15 15 -14 44 2 50 9 4 8 8 -3 16 -12 8 -12 11 -1 11 10 0 11 3 2 14 -7 8 -8
22 -3 36 5 13 5 42 1 64 -4 22 -6 52 -4 67 2 16 -4 35 -15 47 -10 11 -16 23
-13 26 4 3 -1 6 -9 6 -20 0 -35 -18 -41 -50 -12 -68 8 422 28 678 6 71 5 72
-18 72 -24 0 -24 0 -31 -152 -4 -84 -10 -177 -13 -205 l-6 -53 -38 0 c-21 0
-40 3 -42 8 -9 14 15 377 25 389 14 17 -35 18 -65 1 -31 -17 -58 -18 -89 -3
-22 11 -26 10 -21 -1 7 -20 -16 -17 -41 4 -20 16 -20 16 -7 0 12 -16 11 -18
-4 -18 -10 0 -28 8 -39 18 -20 16 -20 16 -7 0 12 -16 11 -18 -4 -18 -10 0 -28
8 -39 18 -20 16 -20 16 -7 0 12 -16 11 -18 -7 -18 -11 0 -25 7 -32 15 -7 8
-17 15 -23 15 -6 0 -2 -7 9 -15 19 -14 19 -14 0 -15 -11 0 -29 8 -40 18 -20
16 -20 16 -7 0 15 -21 2 -24 -18 -5 -11 10 -13 10 -7 0 5 -8 1 -13 -9 -13 -9
0 -14 4 -10 9 3 5 1 13 -5 16 -6 4 -10 3 -9 -2 4 -22 -3 -28 -32 -28 -19 0
-36 7 -45 19 -7 11 -17 17 -20 13 -4 -4 -2 -13 5 -21 10 -11 -8 -13 -118 -12
-71 1 -133 5 -137 9 -4 4 1 7 12 6 33 -3 54 1 54 10 0 5 -208 9 -501 10 l-502
1 7 -92z m743 68 c-1 -5 4 -11 12 -14 8 -2 11 0 7 6 -3 5 0 12 8 15 8 3 17 -1
20 -9 3 -8 10 -14 16 -14 6 0 9 4 5 9 -9 15 15 25 28 12 9 -9 8 -11 -6 -5 -12
4 -17 2 -15 -7 3 -15 -78 -23 -88 -8 -3 5 -10 9 -15 9 -6 0 -8 -4 -5 -8 3 -4
-11 -9 -30 -9 -19 -1 -36 3 -39 7 -3 4 4 6 15 3 11 -3 20 0 20 6 0 6 7 8 17 4
9 -4 14 -2 11 3 -4 5 4 9 17 9 13 0 23 -4 22 -9z m955 -120 c-2 -61 0 -76 10
-70 10 6 10 5 2 -7 -11 -14 -25 -106 -24 -161 l0 -28 -100 0 c-55 0 -100 4
-100 9 0 5 42 13 93 17 50 5 81 10 67 12 -13 2 -57 1 -97 -3 -63 -6 -73 -9
-73 -26 0 -18 -9 -19 -170 -19 -131 0 -170 3 -169 13 4 29 -2 39 -18 33 -16
-5 -16 -5 0 8 12 9 19 30 21 60 l3 46 -24 -15 c-13 -9 -23 -12 -23 -8 0 5 -5
1 -10 -7 -8 -13 -10 -13 -10 2 0 20 17 33 22 17 2 -5 15 2 28 18 14 15 17 21
8 14 -14 -10 -18 -10 -18 -1 0 7 -7 10 -15 6 -8 -3 -14 -2 -14 2 3 18 -2 32
-11 32 -5 0 -10 -6 -10 -13 0 -8 -10 -25 -22 -38 -13 -15 -19 -18 -15 -7 4 10
-1 18 -14 21 -10 3 -19 1 -19 -4 0 -11 -39 -6 -48 7 -4 5 -18 9 -31 9 -19 0
-26 -7 -33 -32 -5 -18 -11 -33 -13 -33 -3 0 -3 10 0 23 5 18 1 26 -18 34 -28
13 -42 6 -27 -12 8 -9 6 -14 -6 -19 -13 -5 -14 -9 -4 -21 10 -12 9 -15 -6 -15
-16 0 -17 -2 -4 -10 12 -8 13 -12 2 -19 -8 -4 -16 -27 -19 -50 l-6 -41 -82 0
c-60 0 -83 3 -82 13 0 6 -1 26 -3 42 l-2 30 -8 -30 -8 -30 -2 35 c-1 19 -4 29
-7 23 -7 -19 -53 -16 -53 2 0 8 -8 15 -19 15 -13 0 -22 12 -31 45 -11 41 -30
62 -30 34 0 -6 -9 -9 -20 -6 -11 3 -20 1 -20 -5 0 -6 -9 -8 -20 -5 -11 3 -20
1 -20 -4 0 -4 -7 -6 -15 -3 -10 4 -15 0 -15 -15 0 -13 -6 -21 -17 -21 -15 0
-16 -2 -3 -10 10 -6 11 -10 3 -10 -7 0 -13 -7 -13 -15 0 -8 6 -15 13 -15 10 0
12 -10 8 -37 l-6 -38 -138 -3 -137 -3 0 160 0 159 63 6 c34 2 316 10 627 16
647 13 901 20 915 25 34 12 40 0 37 -79z m-2382 -56 c0 -5 -7 -10 -16 -10 -8
0 -12 5 -9 10 3 6 10 10 16 10 5 0 9 -4 9 -10z m1715 -118 c-3 -3 -11 0 -18 7
-9 10 -8 11 6 5 10 -3 15 -9 12 -12z m781 -199 c-3 -38 -9 -107 -12 -155 l-6
-88 -39 0 c-35 0 -39 2 -39 26 0 30 -20 28 -35 -3 -5 -12 -19 -23 -31 -26 -12
-2 -229 -5 -481 -6 -252 -1 -522 -4 -601 -7 -81 -4 -142 -3 -141 2 1 5 1 22 0
37 l-1 28 -31 -36 c-27 -31 -37 -35 -79 -35 -47 0 -69 17 -55 41 10 15 -15 49
-35 49 -16 0 -20 -7 -20 -31 0 -25 3 -30 17 -25 15 6 15 4 -2 -14 -23 -26
-105 -29 -101 -4 1 8 9 20 17 25 12 7 12 9 -1 10 -8 1 -17 1 -20 1 -3 0 -5 13
-6 29 -1 16 3 29 8 29 12 0 6 21 -7 23 -5 1 -12 -11 -15 -28 l-5 -30 -18 37
c-9 20 -17 52 -17 71 0 34 1 35 48 41 26 4 99 6 162 5 106 -2 422 3 1040 16
135 3 273 8 308 12 l62 6 0 -34 c0 -27 4 -35 19 -36 16 -1 21 7 26 47 6 43 11
51 43 69 21 11 41 20 46 20 4 1 5 -29 2 -66z m-355 41 c9 -11 8 -14 -4 -14 -9
0 -19 5 -22 10 -3 6 -11 10 -16 10 -6 0 -7 -4 -4 -10 9 -15 -21 -12 -34 4 -9
11 -4 14 28 14 23 0 45 -5 52 -14z m194 6 c3 -5 -1 -10 -9 -10 -8 0 -18 5 -21
10 -3 6 1 10 9 10 8 0 18 -4 21 -10z m-140 -10 c3 -5 -1 -10 -10 -10 -9 0 -13
5 -10 10 3 6 8 10 10 10 2 0 7 -4 10 -10z m45 0 c0 -5 -7 -7 -15 -4 -8 4 -15
8 -15 10 0 2 7 4 15 4 8 0 15 -4 15 -10z m50 0 c0 -5 -4 -10 -9 -10 -6 0 -13
5 -16 10 -3 6 1 10 9 10 9 0 16 -4 16 -10z m-1756 -58 c3 -5 -1 -9 -9 -9 -8 0
-12 4 -9 9 3 4 7 8 9 8 2 0 6 -4 9 -8z m-391 -84 c49 17 66 15 105 -14 27 -21
45 -27 89 -26 29 0 60 6 68 12 31 25 147 -47 170 -105 9 -22 15 -43 13 -46 -2
-3 2 -12 8 -20 7 -8 15 -34 19 -59 4 -25 17 -76 30 -115 12 -38 26 -85 30
-104 l7 -33 -38 6 c-22 3 -58 7 -81 8 -33 1 -42 6 -40 17 1 9 -4 15 -10 13 -7
-1 -13 2 -13 6 0 5 -13 8 -30 7 -16 -1 -27 2 -25 5 3 4 -4 10 -15 13 -11 3
-18 1 -15 -4 3 -4 -23 -8 -59 -8 -35 1 -73 -4 -84 -10 -11 -6 -22 -7 -26 -4
-3 3 -6 1 -6 -5 0 -7 -6 -11 -12 -10 -7 2 -12 -2 -11 -9 2 -8 -4 -10 -14 -6
-10 4 -14 2 -10 -4 5 -7 0 -9 -13 -6 -16 4 -19 2 -14 -11 3 -9 1 -16 -5 -16
-6 0 -8 -6 -5 -14 3 -8 -3 -17 -14 -20 -29 -10 -168 -17 -157 -8 23 17 15 31
-15 25 -24 -4 -29 -3 -25 9 5 12 0 14 -19 11 -14 -3 -26 -9 -26 -13 0 -5 -14
-5 -30 0 -17 5 -41 6 -53 4 -12 -3 -28 -6 -34 -6 -7 -1 -13 -5 -13 -9 0 -4
-16 -7 -36 -7 -30 0 -119 -35 -134 -53 -3 -3 -15 -8 -27 -11 -24 -6 -27 -1
-24 39 1 11 -2 24 -7 26 -4 3 -5 32 -2 64 4 32 3 71 -1 87 -13 47 -3 132 20
168 11 18 29 51 39 73 28 60 61 87 111 91 24 2 58 11 75 19 34 16 76 16 88 1
8 -12 112 -8 116 4 2 6 8 10 13 10 19 0 89 35 89 45 0 5 4 3 10 -5 7 -12 14
-12 43 -2z m2322 -405 c-5 -36 -10 -43 -28 -43 -44 0 -48 10 -45 126 l3 109
35 17 35 18 3 -93 c2 -50 0 -111 -3 -134z m-539 191 l7 -26 210 4 209 3 -6
-65 c-3 -36 -6 -84 -6 -107 l0 -43 -60 0 -60 0 0 75 0 75 -122 0 c-133 0 -171
-10 -176 -48 -3 -21 -7 -22 -127 -22 l-124 0 -3 -37 -3 -38 -110 -3 c-67 -1
-116 2 -125 9 -11 8 -12 12 -2 16 6 2 12 15 12 28 0 24 2 24 108 27 l107 3 3
43 c3 34 7 42 23 42 15 0 19 7 19 35 0 30 3 35 24 35 14 0 28 5 31 10 3 6 42
10 85 10 77 0 80 -1 86 -26z m-926 -29 c0 -8 -4 -15 -10 -15 -5 0 -10 7 -10
15 0 8 5 15 10 15 6 0 10 -7 10 -15z m130 -5 c0 -5 -4 -10 -10 -10 -5 0 -10 5
-10 10 0 6 5 10 10 10 6 0 10 -4 10 -10z m530 -5 c0 -8 -4 -15 -10 -15 -5 0
-10 7 -10 15 0 8 5 15 10 15 6 0 10 -7 10 -15z m-323 -9 c4 -4 1 -11 -7 -16
-13 -8 -29 3 -30 22 0 8 27 4 37 -6z m43 -9 c0 -16 -3 -17 -15 -7 -8 7 -15 16
-15 20 0 3 7 7 15 7 8 0 15 -9 15 -20z m-659 -16 c-8 -5 -11 -16 -8 -25 3 -8
2 -18 -3 -21 -11 -7 -13 35 -4 60 5 12 10 13 18 5 8 -8 7 -13 -3 -19z m552 14
c-6 -17 -25 -15 -31 3 -2 7 5 12 17 12 14 0 19 -5 14 -15z m-346 -7 c-2 -7
-16 -12 -31 -10 -19 2 -26 -1 -21 -9 4 -6 1 -15 -6 -20 -20 -13 -29 -11 -29 6
0 8 5 15 10 15 6 0 10 7 10 15 0 11 11 15 36 15 24 0 34 -4 31 -12z m488 -7
c3 -5 1 -12 -5 -16 -5 -3 -10 1 -10 9 0 18 6 21 15 7z m-440 -31 c3 -5 -1 -10
-9 -10 -9 0 -16 5 -16 10 0 6 4 10 9 10 6 0 13 -4 16 -10z m1195 0 c0 -5 -5
-10 -11 -10 -5 0 -7 5 -4 10 3 6 8 10 11 10 2 0 4 -4 4 -10z m-1057 -14 c4
-10 0 -12 -14 -9 -10 3 -16 9 -13 14 8 13 21 11 27 -5z m-225 -41 c5 -48 -11
-79 -41 -80 -29 -2 -43 20 -26 41 6 8 8 14 4 14 -4 0 -2 7 5 15 9 10 9 15 1
15 -6 0 -11 7 -11 16 0 11 8 14 33 12 28 -3 32 -7 35 -33z m542 20 c0 -8 -7
-15 -15 -15 -8 0 -15 7 -15 15 0 8 7 15 15 15 8 0 15 -7 15 -15z m-110 -5 c0
-5 -4 -10 -10 -10 -5 0 -10 5 -10 10 0 6 5 10 10 10 6 0 10 -4 10 -10z m865
-15 c0 -22 -31 -33 -48 -16 -7 7 -6 15 3 26 17 21 45 15 45 -10z m-135 7 c0 9
3 9 12 0 10 -10 10 -15 -2 -22 -26 -17 -50 -12 -50 10 0 18 3 19 20 10 15 -8
20 -8 20 2z m-348 -21 c7 11 8 9 4 -4 -3 -10 -6 -27 -6 -38 0 -10 -4 -19 -10
-19 -5 0 -9 17 -8 37 1 21 3 32 6 24 4 -11 6 -11 14 0z m-657 -41 c-3 -5 -10
-10 -16 -10 -5 0 -9 5 -9 10 0 6 7 10 16 10 8 0 12 -4 9 -10z m125 -8 c0 -4
-9 -8 -20 -9 -11 -1 -18 2 -15 8 7 11 35 12 35 1z m853 -49 c-35 -2 -91 -2
-125 0 -35 2 -7 3 62 3 69 0 97 -1 63 -3z m297 3 c0 -2 -7 -7 -16 -10 -8 -3
-12 -2 -9 4 6 10 25 14 25 6z m60 -5 c0 -5 -9 -7 -20 -4 -11 3 -20 7 -20 9 0
2 9 4 20 4 11 0 20 -4 20 -9z m-1661 -55 c-1 -24 -3 -26 -6 -8 -2 12 -9 20
-14 17 -5 -4 -9 0 -9 8 0 7 7 14 15 14 10 0 15 -10 14 -31z m1381 22 c0 -5
-80 -7 -177 -6 -118 1 -154 3 -108 7 102 9 285 8 285 -1z m55 2 c-3 -5 -16
-10 -28 -10 -18 0 -19 2 -7 10 20 13 43 13 35 0z m55 0 c0 -5 -7 -10 -15 -10
-8 0 -15 5 -15 10 0 6 7 10 15 10 8 0 15 -4 15 -10z m65 0 c3 -5 1 -10 -4 -10
-6 0 -12 -10 -12 -22 l-2 -23 -4 23 c-2 12 -11 22 -19 22 -8 0 -14 5 -14 10 0
6 11 10 24 10 14 0 28 -4 31 -10z m-548 -6 c-3 -3 -12 -4 -19 -1 -8 3 -5 6 6
6 11 1 17 -2 13 -5z m-1164 -14 c16 0 26 -4 23 -9 -3 -5 1 -12 10 -15 8 -3 12
-2 9 4 -3 6 -3 10 0 10 29 0 48 -196 24 -242 -14 -25 -57 -43 -154 -63 -117
-25 -178 -24 -212 1 -29 22 -38 51 -14 46 8 -2 11 3 8 13 -4 10 0 15 12 15 10
0 33 7 50 16 23 11 49 15 86 12 39 -3 56 -1 59 8 7 19 -3 23 -72 25 -33 1 -59
6 -57 10 3 4 -1 10 -7 12 -8 4 -7 6 4 6 9 1 19 -3 23 -8 7 -12 50 0 111 29 27
14 51 19 65 15 15 -5 19 -4 15 4 -4 6 -1 11 6 11 24 0 -47 48 -89 61 -24 6
-40 15 -37 20 3 5 -1 10 -8 11 -7 0 7 4 32 8 25 4 54 6 65 4 11 -2 33 -4 48
-4z m-1134 -60 c9 -27 8 -30 -10 -30 -14 0 -19 7 -19 30 0 17 4 30 9 30 5 0
14 -13 20 -30z m1079 -18 c12 -8 20 -17 18 -20 -3 -3 -11 0 -18 5 -7 6 -28 14
-45 18 -18 3 -33 11 -33 16 0 12 48 0 78 -19z m-760 8 c-15 -4 -51 -10 -80
-14 l-53 -5 40 14 c22 7 58 13 80 13 36 0 37 -1 13 -8z m52 -14 c0 -2 3 -11 6
-20 4 -10 1 -16 -8 -16 -15 0 -21 -32 -13 -68 4 -15 11 -22 20 -18 8 3 24 -3
37 -14 l23 -18 -38 -7 c-24 -5 -35 -11 -29 -17 14 -14 144 21 138 38 -3 7 2
15 10 18 9 3 13 9 10 14 -2 4 0 14 5 22 8 12 12 12 16 3 11 -30 25 -11 20 29
-5 39 -4 41 10 23 29 -40 -1 -200 -46 -246 -29 -29 -66 -36 -231 -42 -74 -3
-76 -3 -106 30 -18 18 -37 53 -43 77 -15 62 -15 71 4 56 14 -11 19 -7 16 13
-1 10 31 9 49 -3 11 -7 14 -25 11 -80 -2 -46 1 -70 8 -70 6 0 11 15 11 33 0
17 7 50 14 72 14 38 13 41 -7 52 -19 11 -17 18 6 14 4 0 7 4 7 9 0 6 -7 10
-15 10 -9 0 -12 6 -9 15 4 8 2 15 -3 15 -6 0 -15 11 -21 25 -13 28 -10 31 52
45 35 9 96 12 96 6z m655 -16 c-3 -5 -11 -10 -16 -10 -6 0 -7 5 -4 10 3 6 11
10 16 10 6 0 7 -4 4 -10z m-920 -10 c-27 -12 -43 -12 -25 0 8 5 22 9 30 9 10
0 8 -3 -5 -9z m790 -18 c-8 -8 -25 10 -19 20 4 6 9 5 15 -3 4 -7 6 -15 4 -17z
m-862 -24 c7 -7 14 -35 16 -63 2 -27 8 -53 15 -57 6 -4 -4 -8 -21 -8 -18 0
-33 -5 -33 -11 0 -5 -4 -7 -10 -4 -5 3 -10 2 -10 -4 0 -5 15 -12 33 -14 l32
-4 -37 -1 c-35 -2 -36 0 -42 36 -3 20 -5 58 -5 84 0 40 3 47 22 51 12 2 23 5
25 6 2 0 9 -5 15 -11z m182 -48 c3 -5 -1 -10 -9 -10 -9 0 -16 5 -16 10 0 6 4
10 9 10 6 0 13 -4 16 -10z m-118 -45 c0 -8 -4 -12 -9 -9 -4 3 -8 9 -8 15 0 5
4 9 8 9 5 0 9 -7 9 -15z m707 -16 c-3 -5 -10 -7 -15 -3 -5 3 -7 10 -3 15 3 5
10 7 15 3 5 -3 7 -10 3 -15z m-704 -24 c0 -8 -4 -15 -10 -15 -5 0 -7 7 -4 15
4 8 8 15 10 15 2 0 4 -7 4 -15z m-3 -47 c-3 -8 -6 -5 -6 6 -1 11 2 17 5 13 3
-3 4 -12 1 -19z m-23 -4 c-6 -3 -9 -15 -7 -28 5 -23 4 -23 -41 -13 -32 7 -46
15 -46 27 0 13 10 17 53 17 28 1 47 -1 41 -3z m31 -44 c3 -5 1 -10 -4 -10 -6
0 -11 5 -11 10 0 6 2 10 4 10 3 0 8 -4 11 -10z m-45 -80 c0 -5 -7 -10 -15 -10
-8 0 -15 5 -15 10 0 6 7 10 15 10 8 0 15 -4 15 -10z m768 -72 c-4 -31 -48 -39
-48 -10 0 20 12 30 38 31 8 1 12 -8 10 -21z m-755 -35 c-7 -2 -19 -2 -25 0 -7
3 -2 5 12 5 14 0 19 -2 13 -5z m361 -139 c3 -8 2 -12 -4 -9 -6 3 -10 10 -10
16 0 14 7 11 14 -7z"/>
<path d="M4492 4773 c-10 -4 -8 -8 5 -18 18 -13 33 -11 33 5 0 11 -22 18 -38
13z"/>
<path d="M4460 4716 c5 -13 6 -27 2 -31 -4 -4 11 -4 33 0 73 11 85 15 85 26 0
6 -6 9 -14 6 -8 -3 -16 -1 -18 5 -3 7 -9 6 -18 -4 -11 -11 -19 -12 -37 -4 -12
6 -23 14 -23 19 0 4 -4 7 -10 7 -6 0 -6 -9 0 -24z"/>
<path d="M4406 4719 c3 -5 9 -7 14 -4 4 3 11 -5 15 -18 4 -15 8 -18 12 -9 3 8
0 19 -6 25 -13 13 -43 19 -35 6z"/>
<path d="M4608 4703 c7 -3 16 -2 19 1 4 3 -2 6 -13 5 -11 0 -14 -3 -6 -6z"/>
<path d="M4671 4374 c0 -11 3 -14 6 -6 3 7 2 16 -1 19 -3 4 -6 -2 -5 -13z"/>
<path d="M3208 4342 c-17 -7 -16 -8 2 -20 17 -11 20 -10 20 8 0 11 -1 20 -2
19 -2 0 -11 -4 -20 -7z"/>
<path d="M4672 4330 c0 -14 2 -19 5 -12 2 6 2 18 0 25 -3 6 -5 1 -5 -13z"/>
<path d="M3343 4333 c-8 -3 -13 -22 -13 -46 l1 -42 29 35 c17 19 30 39 29 45
0 5 -3 4 -6 -2 -2 -7 -9 -13 -14 -13 -4 0 -6 7 -3 15 6 15 -1 18 -23 8z"/>
<path d="M3427 4325 c-4 -8 -2 -17 3 -20 6 -4 10 0 10 9 0 8 6 17 13 19 7 4 6
6 -4 6 -9 1 -19 -6 -22 -14z"/>
<path d="M3118 4323 c7 -3 16 -2 19 1 4 3 -2 6 -13 5 -11 0 -14 -3 -6 -6z"/>
<path d="M3730 4313 c0 -7 -8 -10 -17 -7 -16 5 -16 4 1 -10 10 -8 22 -13 26
-11 5 3 10 -2 14 -10 6 -17 36 -21 36 -5 0 6 -6 10 -14 10 -8 0 -22 10 -30 22
-9 12 -16 17 -16 11z"/>
<path d="M3615 4300 c-3 -5 1 -10 10 -10 9 0 13 5 10 10 -3 6 -8 10 -10 10 -2
0 -7 -4 -10 -10z"/>
<path d="M3857 4274 c3 -8 11 -14 19 -14 21 0 17 17 -5 23 -14 3 -18 1 -14 -9z"/>
<path d="M3240 4269 c0 -5 5 -7 10 -4 6 3 10 8 10 11 0 2 -4 4 -10 4 -5 0 -10
-5 -10 -11z"/>
<path d="M3400 4270 c0 -13 11 -13 30 0 12 8 11 10 -7 10 -13 0 -23 -4 -23
-10z"/>
<path d="M3650 4264 c0 -8 5 -12 10 -9 6 4 8 11 5 16 -9 14 -15 11 -15 -7z"/>
<path d="M3540 4255 c-10 -12 -10 -15 2 -15 8 0 15 7 15 15 0 8 -1 15 -2 15
-2 0 -8 -7 -15 -15z"/>
<path d="M4080 4160 c0 -5 5 -10 10 -10 6 0 10 5 10 10 0 6 -4 10 -10 10 -5 0
-10 -4 -10 -10z"/>
<path d="M4435 4010 c3 -5 8 -10 11 -10 2 0 4 5 4 10 0 6 -5 10 -11 10 -5 0
-7 -4 -4 -10z"/>
<path d="M3986 4985 c10 -8 24 -14 29 -14 6 0 1 6 -9 14 -11 8 -24 15 -30 15
-5 0 -1 -7 10 -15z"/>
<path d="M4042 4983 c6 -7 14 -13 18 -13 3 0 7 6 7 13 0 7 -8 13 -18 13 -13 0
-15 -3 -7 -13z"/>
<path d="M4092 4988 c5 -15 28 -18 29 -3 0 6 -7 12 -17 13 -10 3 -15 -1 -12
-10z"/>
<path d="M4193 4985 c0 -7 8 -10 19 -7 10 2 18 6 18 7 0 1 -8 5 -18 7 -11 3
-19 0 -19 -7z"/>
<path d="M4595 4990 c3 -5 8 -10 11 -10 2 0 4 5 4 10 0 6 -5 10 -11 10 -5 0
-7 -4 -4 -10z"/>
<path d="M4986 4301 c-7 -11 -63 -298 -64 -328 0 -13 9 -30 21 -38 12 -8 21
-18 20 -20 -2 -3 -2 -17 -1 -32 0 -16 4 -6 8 22 4 30 7 -14 6 -112 0 -91 -5
-156 -9 -150 -6 8 -7 5 -3 -6 3 -10 6 -62 6 -115 0 -60 4 -92 9 -83 7 11 10
10 14 -5 2 -10 5 182 6 429 0 246 -1 447 -3 447 -3 0 -7 -4 -10 -9z"/>
<path d="M1200 3909 c0 -7 73 -15 103 -10 4 0 7 -10 7 -24 0 -14 5 -25 11 -25
5 0 7 -5 3 -12 -5 -8 -10 -7 -18 3 -6 8 -19 13 -28 11 -22 -4 -24 -22 -3 -22
8 0 15 -5 15 -12 0 -6 3 -8 7 -5 3 4 12 2 18 -3 15 -12 48 -2 39 11 -3 5 -2 9
3 8 28 -5 53 3 53 17 0 12 -9 15 -42 12 -38 -3 -43 0 -46 20 -3 22 -2 22 115
23 90 1 109 3 78 10 -55 11 -315 10 -315 -2z"/>
<path d="M1534 3785 c6 -77 5 -86 -11 -92 -10 -4 -21 -11 -25 -17 -4 -6 -8 10
-8 35 l0 47 -45 4 c-60 4 -65 2 -66 -35 -1 -30 -1 -30 -8 -7 -5 17 -9 21 -15
12 -13 -21 -35 -14 -29 9 5 19 4 20 -15 8 -31 -20 -45 -84 -16 -72 13 5 15 2
10 -14 -7 -22 16 -49 34 -38 6 4 10 -5 10 -22 0 -20 -8 -34 -27 -47 -16 -9
-20 -15 -10 -12 9 3 17 2 17 -3 0 -4 11 -6 25 -3 14 2 25 0 25 -5 0 -5 6 -10
13 -10 6 0 17 -2 22 -3 16 -4 76 21 70 30 -3 4 3 7 12 6 18 -1 19 1 23 62 1
20 4 31 7 24 7 -18 23 -4 23 20 0 14 5 18 15 14 9 -3 15 0 15 9 0 8 -5 15 -11
15 -5 0 -9 8 -8 18 1 9 1 47 0 85 -1 55 -4 67 -17 67 -15 0 -16 -10 -10 -85z
m-98 -92 c-4 -4 -11 -1 -16 7 -16 25 -11 35 7 17 9 -9 13 -20 9 -24z"/>
<path d="M3210 3840 c0 -5 5 -10 10 -10 6 0 10 5 10 10 0 6 -4 10 -10 10 -5 0
-10 -4 -10 -10z"/>
<path d="M3140 3750 c0 -9 23 -30 32 -30 4 0 8 9 8 19 0 14 -6 19 -20 18 -11
-1 -20 -4 -20 -7z"/>
<path d="M3243 3743 c-3 -10 -8 -21 -10 -25 -2 -5 2 -8 10 -8 9 0 15 10 15 25
0 29 -6 32 -15 8z"/>
<path d="M4724 3655 c0 -49 1 -71 3 -48 2 23 2 64 0 90 -2 26 -3 8 -3 -42z"/>
<path d="M3545 3710 c3 -5 13 -10 21 -10 8 0 14 5 14 10 0 6 -9 10 -21 10 -11
0 -17 -4 -14 -10z"/>
<path d="M4370 3665 l0 -55 35 0 c24 0 35 -5 35 -15 0 -8 4 -15 9 -15 13 0 20
47 9 58 -6 6 -6 12 1 16 6 4 11 20 11 37 0 28 -1 29 -50 29 l-50 0 0 -55z"/>
<path d="M4538 3649 c-3 -72 -3 -72 -33 -75 -16 -1 -246 -5 -510 -8 -264 -3
-481 -9 -483 -14 -1 -5 -25 -5 -53 -2 -28 4 -67 3 -87 -1 l-37 -7 35 -1 c19
-1 42 -6 50 -11 12 -8 9 -10 -10 -6 -67 13 -106 15 -120 6 -12 -8 -8 -10 15
-12 79 -5 187 -7 370 -8 110 -1 191 -5 180 -9 -11 -5 -37 -6 -57 -3 -29 3 -39
1 -44 -12 -9 -24 5 -34 20 -13 14 19 36 23 36 7 0 -5 9 -10 21 -10 11 0 17 5
14 10 -3 6 -1 10 4 10 6 0 11 -4 11 -10 0 -5 7 -7 15 -4 8 4 15 12 15 20 0 10
14 14 49 14 54 0 61 -7 69 -77 2 -8 18 -11 55 -8 28 2 59 4 69 4 11 1 15 7 11
21 -5 17 -14 20 -68 20 -59 0 -75 8 -75 36 0 2 43 4 95 4 92 0 95 -1 101 -25
3 -13 4 -30 2 -37 -6 -17 33 -37 53 -27 19 10 32 49 16 49 -6 0 -19 -7 -29
-17 -33 -29 -29 -7 4 26 49 48 62 42 55 -26 -3 -31 -11 -59 -17 -63 -8 -5 -7
-9 4 -13 9 -4 16 -18 16 -32 0 -14 5 -25 11 -25 7 0 10 -14 7 -35 l-4 -35 54
0 c33 0 51 4 47 10 -3 6 -14 10 -23 11 -10 0 -6 5 11 11 30 11 35 25 12 34
-20 8 -19 24 1 24 12 0 15 6 10 25 -4 14 -2 25 4 25 5 0 10 15 10 34 0 32 10
47 35 53 6 1 21 5 34 9 l24 7 -6 -136 c-4 -107 -2 -137 7 -137 8 0 13 12 13
28 0 15 3 36 8 46 6 15 5 17 -5 11 -8 -5 -11 -4 -7 2 3 5 7 73 8 151 1 78 6
142 10 142 5 0 9 14 9 31 0 17 4 28 10 24 6 -3 10 -1 10 4 0 6 -4 11 -10 11
-5 0 -10 11 -10 25 0 15 -6 25 -15 25 -11 0 -15 -17 -17 -71z"/>
<path d="M3241 3660 c-2 -25 -4 -54 -5 -65 0 -11 2 -30 6 -43 5 -15 4 -21 -2
-17 -6 3 -10 -1 -10 -9 0 -8 5 -18 11 -22 13 -8 31 16 24 33 -2 7 8 14 23 16
25 4 24 4 -5 6 l-32 1 -4 73 c-2 53 -4 60 -6 27z"/>
<path d="M212 3660 c0 -14 2 -19 5 -12 2 6 2 18 0 25 -3 6 -5 1 -5 -13z"/>
<path d="M140 3660 c1 -18 29 -70 30 -54 0 7 -7 25 -15 40 -8 16 -15 22 -15
14z"/>
<path d="M4028 3643 c-28 -7 -21 -20 12 -25 34 -5 56 5 46 21 -7 11 -26 12
-58 4z"/>
<path d="M3071 3528 c-11 -40 -21 -78 -21 -84 0 -6 -8 -18 -19 -28 -12 -11
-20 -37 -24 -79 -3 -34 -9 -77 -13 -94 l-6 -33 45 0 c25 0 49 5 53 11 12 20
14 82 4 95 -17 19 0 44 29 44 36 0 38 3 33 45 -3 24 -9 35 -21 35 -14 0 -14
-2 -1 -10 13 -8 12 -10 -2 -10 -10 0 -17 -3 -17 -7 1 -5 1 -15 0 -23 -1 -12
-5 -11 -18 5 -13 16 -15 17 -10 3 4 -10 2 -18 -3 -18 -5 0 -8 14 -8 31 1 17 4
25 8 18 12 -18 18 17 19 99 0 39 -2 72 -3 72 -2 0 -13 -33 -25 -72z"/>
<path d="M221 3568 c-1 -30 -2 -31 -25 -22 -9 3 -13 10 -10 15 3 5 -2 6 -10 3
-21 -8 -20 -31 2 -36 38 -10 120 -9 127 1 6 10 -27 16 -62 12 -6 -1 -14 11
-16 26 l-4 28 -2 -27z"/>
<path d="M4408 3583 c7 -3 16 -2 19 1 4 3 -2 6 -13 5 -11 0 -14 -3 -6 -6z"/>
<path d="M3115 3550 c-3 -5 1 -10 9 -10 20 0 20 -7 1 -26 -23 -24 -19 -54 8
-54 20 1 20 2 4 11 -9 6 -15 15 -11 21 4 6 10 5 15 -3 6 -9 9 1 9 29 0 30 -4
42 -14 42 -8 0 -18 -4 -21 -10z"/>
<path d="M1633 3515 c0 -22 2 -30 4 -17 2 12 2 30 0 40 -3 9 -5 -1 -4 -23z"/>
<path d="M4713 3515 c0 -22 2 -30 4 -17 2 12 2 30 0 40 -3 9 -5 -1 -4 -23z"/>
<path d="M333 3533 c9 -2 23 -2 30 0 6 3 -1 5 -18 5 -16 0 -22 -2 -12 -5z"/>
<path d="M1331 3462 c-6 -11 -8 -29 -4 -39 6 -14 9 -11 14 17 9 41 5 50 -10
22z"/>
<path d="M1505 3470 c-3 -5 -1 -10 5 -10 7 0 10 -5 8 -11 -2 -6 8 -37 23 -68
15 -31 23 -57 18 -59 -11 -5 -12 -99 -1 -106 5 -3 18 -2 30 1 19 5 22 12 22
60 0 42 -3 54 -14 50 -9 -4 -23 19 -46 74 -18 43 -34 79 -36 79 -1 0 -6 -4 -9
-10z"/>
<path d="M3580 3463 c0 -27 11 -63 19 -63 4 0 14 15 22 34 15 32 15 34 -3 31
-10 -2 -18 0 -18 6 0 5 -4 9 -10 9 -5 0 -10 -8 -10 -17z"/>
<path d="M1632 3432 c-1 -24 -6 -51 -11 -60 -5 -10 -7 -38 -4 -64 4 -35 9 -45
20 -41 10 4 12 15 8 37 -5 23 -4 27 4 16 6 -8 11 -25 11 -38 0 -19 3 -21 19
-11 13 9 18 24 18 56 0 23 -4 43 -9 43 -6 0 -8 -6 -5 -13 3 -8 1 -20 -4 -28
-8 -13 -11 -7 -8 17 0 3 -7 11 -15 17 -9 7 -17 33 -19 62 l-3 50 -2 -43z"/>
<path d="M1361 3444 c0 -11 3 -14 6 -6 3 7 2 16 -1 19 -3 4 -6 -2 -5 -13z"/>
<path d="M3232 3430 c0 -14 2 -19 5 -12 2 6 2 18 0 25 -3 6 -5 1 -5 -13z"/>
<path d="M4712 3420 c0 -19 2 -27 5 -17 2 9 2 25 0 35 -3 9 -5 1 -5 -18z"/>
<path d="M3480 3419 c0 -6 7 -9 15 -5 11 4 15 -2 15 -24 0 -17 4 -30 9 -30 15
0 19 36 6 53 -14 19 -45 23 -45 6z"/>
<path d="M1682 3400 c0 -14 2 -19 5 -12 2 6 2 18 0 25 -3 6 -5 1 -5 -13z"/>
<path d="M1491 3396 c-12 -15 -8 -20 12 -17 4 0 7 -6 7 -15 0 -8 -4 -12 -10
-9 -6 4 -7 -6 -4 -27 8 -39 18 -53 33 -43 15 8 9 62 -10 98 -14 25 -17 27 -28
13z"/>
<path d="M3231 3384 c0 -11 3 -14 6 -6 3 7 2 16 -1 19 -3 4 -6 -2 -5 -13z"/>
<path d="M4015 3391 c11 -5 24 -6 29 -3 5 3 6 -6 3 -19 -6 -22 -3 -24 33 -24
47 0 58 9 35 31 -10 10 -37 18 -68 21 -36 2 -46 0 -32 -6z"/>
<path d="M4960 3384 c0 -8 5 -12 10 -9 6 4 8 11 5 16 -9 14 -15 11 -15 -7z"/>
<path d="M3595 3380 c-8 -13 -1 -24 14 -19 6 3 7 10 2 18 -6 10 -10 10 -16 1z"/>
<path d="M4900 3380 c-13 -9 -13 -10 0 -11 8 -1 20 -1 27 0 6 1 14 -6 16 -16
3 -11 5 -8 6 10 1 29 -19 36 -49 17z"/>
<path d="M4775 3358 c-4 -10 -5 -24 -2 -32 3 -7 1 -18 -5 -24 -11 -11 -3 -32
13 -32 5 0 9 6 8 13 -3 25 1 37 14 37 6 0 21 8 32 17 19 15 19 15 -7 9 -20 -4
-30 -1 -37 11 -9 17 -10 17 -16 1z"/>
<path d="M4000 3356 c0 -2 7 -7 16 -10 8 -3 12 -2 9 4 -6 10 -25 14 -25 6z"/>
<path d="M4702 3340 c0 -14 2 -19 5 -12 2 6 2 18 0 25 -3 6 -5 1 -5 -13z"/>
<path d="M3118 3343 c-4 -25 -2 -39 7 -45 6 -5 6 -8 -2 -8 -8 0 -13 -14 -13
-35 0 -33 2 -35 20 -25 12 6 20 21 20 36 0 23 3 25 26 20 19 -5 25 -3 22 6 -3
7 -16 13 -30 13 -20 0 -24 3 -20 22 3 16 0 23 -12 23 -9 0 -17 -3 -18 -7z"/>
<path d="M3935 3330 c3 -5 8 -10 11 -10 2 0 4 5 4 10 0 6 -5 10 -11 10 -5 0
-7 -4 -4 -10z"/>
<path d="M1420 3321 c0 -5 6 -11 13 -14 8 -3 14 1 14 9 0 8 -6 14 -14 14 -7 0
-13 -4 -13 -9z"/>
<path d="M4886 3314 c-9 -8 -16 -17 -16 -19 0 -8 41 9 51 21 17 20 -15 19 -35
-2z"/>
<path d="M2279 3299 c17 -14 33 -18 49 -14 13 3 30 1 37 -5 11 -9 21 -7 44 6
35 21 22 38 -16 23 -15 -6 -31 -5 -43 1 -10 5 -36 10 -57 10 l-38 -1 24 -20z"/>
<path d="M51 3298 c-1 -10 -9 -18 -18 -18 -15 0 -16 2 -3 10 9 6 10 10 3 10
-15 0 -33 -32 -33 -59 0 -19 5 -23 26 -20 4 0 10 -5 14 -11 5 -8 9 -7 13 4 5
12 0 16 -21 16 -21 0 -24 2 -12 10 8 5 11 10 5 10 -5 0 -4 4 4 9 7 5 28 5 46
1 18 -4 39 -4 45 0 16 10 2 33 -16 26 -8 -3 -14 1 -14 11 0 12 -3 13 -14 4
-11 -9 -15 -9 -19 1 -4 8 -6 7 -6 -4z"/>
<path d="M4838 3283 c7 -3 16 -2 19 1 4 3 -2 6 -13 5 -11 0 -14 -3 -6 -6z"/>
<path d="M3400 3265 c0 -8 5 -15 10 -15 6 0 10 5 10 11 0 6 8 8 19 4 11 -3 22
-1 26 5 4 6 -7 10 -29 10 -25 0 -36 -4 -36 -15z"/>
<path d="M3920 3272 c-8 -3 -8 -8 1 -18 12 -15 129 -21 142 -7 4 4 24 7 44 7
20 1 38 7 41 14 3 10 -12 12 -62 11 -36 -1 -66 -6 -66 -11 0 -5 -5 -6 -12 -2
-13 8 -69 12 -88 6z"/>
<path d="M1501 3254 c0 -11 3 -14 6 -6 3 7 2 16 -1 19 -3 4 -6 -2 -5 -13z"/>
<path d="M1680 3254 c-11 -12 -10 -18 3 -32 16 -15 17 -14 17 16 0 36 -2 38
-20 16z"/>
<path d="M4580 3260 c0 -5 5 -10 10 -10 6 0 10 5 10 10 0 6 -4 10 -10 10 -5 0
-10 -4 -10 -10z"/>
<path d="M4702 3250 c0 -14 2 -19 5 -12 2 6 2 18 0 25 -3 6 -5 1 -5 -13z"/>
<path d="M55 3240 c4 -6 11 -8 16 -5 5 4 9 1 9 -4 0 -6 -4 -11 -10 -11 -5 0
-10 -4 -10 -10 0 -5 17 -10 38 -10 27 0 33 3 22 10 -10 6 -11 10 -2 10 6 0 12
7 12 15 0 18 -11 19 -29 3 -8 -7 -11 -8 -8 -3 3 6 -6 12 -19 13 -15 1 -23 -2
-19 -8z"/>
<path d="M1760 3230 c0 -5 10 -10 23 -10 18 0 19 2 7 10 -19 13 -30 13 -30 0z"/>
<path d="M4813 3233 c15 -2 39 -2 55 0 15 2 2 4 -28 4 -30 0 -43 -2 -27 -4z"/>
<path d="M4258 3223 c28 -2 76 -2 105 0 28 2 5 3 -53 3 -58 0 -81 -1 -52 -3z"/>
<path d="M2962 3128 c-5 -19 -10 -77 -11 -129 -2 -104 -21 -183 -54 -226 -34
-45 -57 -56 -57 -27 0 8 -5 12 -11 9 -6 -4 -8 -13 -5 -21 3 -8 1 -14 -4 -14
-6 0 -10 5 -10 11 0 15 -25 -12 -33 -36 -7 -20 -7 -20 8 -1 18 23 19 19 4 -22
-11 -32 -38 -50 -49 -32 -3 6 -15 10 -26 9 -10 -1 -30 -1 -43 -1 -21 2 -22 4
-10 19 8 9 13 19 11 22 -2 3 2 7 9 10 8 2 9 -1 3 -10 -7 -12 -5 -12 9 -1 9 8
19 22 22 33 4 11 11 16 17 13 8 -5 9 -1 5 10 -5 12 2 22 23 34 16 9 30 23 30
30 0 6 5 12 11 12 6 0 8 7 5 16 -5 12 -2 15 11 10 10 -4 14 -4 10 0 -4 4 0 19
10 33 15 24 15 25 0 12 -10 -8 -21 -11 -24 -7 -4 4 -13 -4 -20 -16 -11 -21
-12 -22 -13 -3 -1 17 -3 16 -16 -8 -8 -15 -12 -33 -8 -39 5 -8 1 -9 -11 -5 -9
4 -24 2 -31 -4 -8 -6 -20 -9 -27 -6 -17 6 -70 -26 -60 -36 3 -4 -2 -7 -13 -8
-38 -1 -68 -10 -75 -21 -6 -9 -11 -8 -23 1 -14 11 -16 11 -16 -4 0 -13 -8 -16
-45 -14 -24 2 -47 0 -51 -3 -3 -4 -17 0 -31 9 -19 13 -26 14 -32 4 -6 -9 -11
-8 -20 3 -7 8 -10 20 -6 26 3 5 0 10 -8 10 -8 0 -22 10 -31 23 -9 12 -14 16
-11 10 3 -7 1 -13 -5 -13 -11 0 -14 7 -25 53 -5 24 -8 27 -20 17 -18 -15 -20
1 -2 19 10 11 9 12 -2 6 -9 -5 -19 -2 -27 10 -8 10 -17 16 -20 12 -4 -3 1 -13
10 -22 19 -19 20 -31 4 -41 -6 -4 -9 -3 -6 2 3 5 -5 20 -18 34 -13 13 -24 19
-24 13 0 -6 6 -14 13 -16 9 -4 9 -6 0 -6 -15 -1 -35 34 -25 44 4 5 2 5 -4 2
-15 -8 -73 48 -110 107 l-29 46 -692 0 c-648 0 -693 1 -702 18 -10 16 -10 16
-11 0 0 -17 -20 -18 -285 -18 l-285 0 0 -920 0 -920 206 0 206 0 -19 -32 -19
-33 -187 -3 -187 -2 0 -580 0 -580 724 0 723 0 37 102 c20 57 40 108 44 115
10 16 145 35 352 50 47 3 86 7 88 8 1 1 -30 12 -70 25 -59 18 -86 22 -153 17
-45 -2 -92 -10 -105 -17 -24 -13 -110 -29 -173 -32 l-39 -2 -3 47 c-3 53 -6
50 120 127 55 33 89 46 157 58 94 17 129 42 58 42 -22 0 -45 6 -52 14 -11 12
-17 12 -42 -1 -16 -8 -62 -16 -101 -18 -39 -1 -81 -8 -93 -14 -11 -6 -30 -11
-41 -11 -10 0 -21 -4 -23 -9 -3 -10 -140 -53 -146 -46 -9 9 -10 55 -1 61 5 3
6 10 3 16 -4 7 -2 8 4 4 6 -4 16 4 23 16 7 13 16 26 21 29 5 3 11 20 13 37 2
17 11 44 19 61 9 16 16 32 16 36 0 3 -43 5 -95 5 -77 0 -93 3 -89 14 3 8 17
13 34 12 16 -1 28 2 27 8 -1 6 4 11 11 12 6 1 14 2 17 3 3 0 1 10 -5 21 -6 11
-16 18 -21 14 -6 -3 -3 -12 8 -20 15 -11 15 -13 2 -8 -10 3 -20 0 -24 -5 -8
-13 -25 -5 -25 12 0 7 4 6 10 -3 5 -8 10 -12 11 -7 1 4 2 10 3 15 3 18 18 32
29 25 8 -5 8 -2 -1 9 -10 12 -9 18 3 28 8 7 15 18 15 24 0 7 18 10 48 9 26 -1
39 0 30 3 -31 9 -20 23 14 19 18 -2 38 1 46 8 12 10 13 5 7 -31 -4 -26 -3 -42
3 -42 6 0 10 16 10 36 0 19 3 38 6 41 3 4 6 -20 6 -52 l0 -58 25 28 c17 18 33
25 45 22 11 -3 20 -2 20 2 0 10 29 12 170 14 69 1 131 6 139 11 10 6 12 6 7
-2 -5 -9 7 -12 42 -12 27 0 65 -3 83 -6 33 -6 33 -6 14 10 l-20 16 20 -6 c19
-6 19 -6 -1 9 -34 26 -69 30 -118 13 -42 -14 -162 -23 -126 -9 8 3 17 9 20 13
3 4 25 15 50 23 25 9 63 23 85 33 76 32 103 34 133 10 15 -12 39 -28 54 -35
15 -8 25 -17 23 -22 -3 -4 3 -5 13 -2 12 3 22 -4 31 -21 11 -19 18 -23 31 -16
24 13 62 1 56 -17 -3 -8 -2 -12 3 -9 5 3 11 -1 15 -9 3 -8 14 -15 24 -15 11 0
25 -7 32 -15 7 -9 28 -23 46 -31 19 -9 31 -20 28 -25 -3 -5 4 -23 16 -39 12
-17 18 -30 13 -30 -4 0 0 -5 10 -11 9 -5 21 -8 26 -4 5 3 12 1 16 -5 12 -19
33 -11 28 11 -3 12 -11 18 -19 15 -8 -3 -18 4 -24 14 -9 17 -7 20 13 20 12 0
28 -5 35 -12 9 -9 12 -8 12 7 0 17 1 17 13 3 19 -24 47 -30 48 -10 0 10 3 12
6 4 2 -6 9 -10 14 -6 5 3 9 1 9 -5 0 -5 -4 -13 -10 -16 -13 -8 -13 -45 0 -65
9 -13 11 -13 21 0 8 12 9 10 4 -7 -4 -16 0 -26 14 -35 12 -7 21 -18 21 -25 0
-6 11 -20 24 -31 21 -16 26 -30 30 -88 3 -38 7 -76 8 -84 0 -8 0 -29 0 -46 -2
-29 -5 -31 -59 -41 -64 -12 -157 -43 -170 -57 -4 -5 1 -6 12 -3 11 4 54 11 95
17 41 6 87 12 103 15 23 4 27 1 27 -20 0 -19 7 -26 38 -34 53 -15 157 -13 227
5 74 19 83 19 172 1 104 -21 146 -57 162 -137 l12 -60 835 0 834 0 0 482 c0
438 -2 483 -17 500 -16 18 -16 18 0 12 23 -8 23 21 0 36 -17 11 -17 11 1 6 18
-6 18 -1 13 91 -3 54 -8 107 -11 118 -2 11 -5 25 -5 31 -1 5 -19 38 -41 72
-22 33 -40 65 -40 70 0 5 -11 19 -25 32 -14 13 -25 19 -25 13 0 -20 -57 16
-80 50 -12 18 -19 23 -15 12 18 -50 18 -55 -3 -55 -30 0 -42 22 -46 87 -5 71
-21 105 -70 152 -20 19 -36 41 -36 48 0 22 14 14 36 -20 11 -18 26 -31 32 -29
7 1 11 -3 10 -10 -4 -15 22 -18 40 -5 9 7 11 6 7 -5 -3 -8 2 -21 11 -29 16
-12 17 -12 9 1 -6 12 -5 12 5 3 7 -6 14 -29 17 -50 5 -43 41 -114 62 -121 8
-3 6 5 -7 18 -12 13 -19 27 -17 31 3 4 -4 25 -16 46 l-22 38 26 -30 c15 -16
26 -34 27 -39 0 -5 22 -40 49 -77 28 -38 57 -82 66 -99 11 -21 21 -30 31 -26
9 3 20 6 25 6 5 0 9 347 9 866 l0 867 -627 -7 c-551 -5 -1295 -9 -1330 -7 -7
1 -26 19 -42 42 l-30 40 -9 -33z m21 -135 c-5 -12 -3 -14 7 -8 10 6 12 4 7 -8
-3 -10 -3 -17 2 -17 8 0 27 -74 37 -145 3 -22 6 -143 7 -270 l2 -230 -37 -3
c-34 -3 -38 0 -61 40 -32 56 -60 144 -51 159 4 8 3 9 -4 5 -9 -5 -11 6 -9 41
3 46 23 93 39 93 4 0 5 7 1 15 -3 9 3 25 12 35 10 11 14 20 10 20 -4 0 0 10
11 22 10 12 13 18 5 13 -11 -7 -11 -4 1 14 9 12 13 32 10 43 -3 12 -1 19 4 15
9 -5 9 13 1 118 -1 17 -6 35 -10 42 -6 9 -1 14 20 22 1 1 -1 -6 -4 -16z m-874
-134 c5 -24 9 -34 10 -21 1 13 5 20 11 17 6 -4 7 -11 4 -17 -4 -6 -3 -8 3 -5
6 4 24 -13 42 -38 18 -25 41 -45 54 -47 13 -2 22 -10 21 -20 -1 -10 4 -14 12
-11 8 3 17 -2 20 -11 3 -9 10 -13 15 -10 5 3 9 1 9 -4 0 -21 63 -50 102 -48
22 2 38 -1 38 -7 0 -7 4 -7 12 1 17 17 29 15 26 -5 -2 -10 2 -18 9 -18 26 0
24 -15 -3 -16 -16 0 -38 -4 -49 -8 -18 -7 -15 -10 19 -25 43 -18 82 -20 138
-7 29 7 38 5 42 -6 3 -8 2 -12 -2 -10 -4 3 -16 1 -27 -4 -18 -7 -18 -8 5 -9
l25 -2 -25 -7 c-23 -6 -33 -27 -44 -97 -5 -37 -17 -46 -51 -41 -32 4 -83 29
-115 54 -9 7 -38 24 -64 38 -27 14 -58 38 -70 52 -11 15 -31 38 -44 52 -33 36
-89 131 -98 166 -4 17 -12 33 -18 37 -8 5 -7 8 2 8 6 0 12 5 12 10 0 6 -6 10
-13 10 -14 0 -37 61 -37 96 0 32 20 1 29 -47z m1788 -51 c-3 -7 -5 -2 -5 12 0
14 2 19 5 13 2 -7 2 -19 0 -25z m-1840 -50 c-2 -13 -4 -3 -4 22 0 25 2 35 4
23 2 -13 2 -33 0 -45z m628 22 c3 -5 1 -10 -4 -10 -6 0 -11 5 -11 10 0 6 2 10
4 10 3 0 8 -4 11 -10z m-564 -155 c5 -22 11 -53 13 -68 2 -16 18 -42 35 -57
35 -33 39 -42 14 -33 -10 3 -15 3 -11 -1 3 -4 13 -9 22 -10 17 -2 106 -93 106
-107 0 -18 -57 -8 -104 19 -31 17 -63 46 -84 77 -31 43 -36 60 -45 142 -5 51
-6 114 -2 140 l8 48 19 -55 c11 -30 24 -73 29 -95z m1853 98 c-3 -58 -4 -59
-14 -43 -11 17 -13 63 -3 73 14 15 20 5 17 -30z m-1454 -82 c0 -5 -7 -12 -16
-15 -14 -5 -15 -4 -4 9 14 17 20 19 20 6z m25 0 c3 -5 2 -12 -3 -15 -5 -3 -9
1 -9 9 0 17 3 19 12 6z m55 -11 c0 -5 -2 -10 -4 -10 -3 0 -8 5 -11 10 -3 6 -1
10 4 10 6 0 11 -4 11 -10z m1465 -10 c11 -19 14 -51 4 -44 -6 3 -8 9 -5 12 3
3 -1 14 -11 24 -9 10 -11 18 -5 18 6 0 14 -4 17 -10z m99 -113 c3 4 6 -4 6
-16 0 -12 4 -20 8 -17 5 3 9 -1 9 -7 0 -22 -36 -17 -49 6 -6 12 -20 28 -30 35
-16 11 -17 16 -6 29 11 13 15 12 34 -10 12 -14 25 -23 28 -20z m46 -88 c0 -5
-4 -9 -8 -9 -5 0 -9 7 -9 15 0 8 4 12 9 9 4 -3 8 -9 8 -15z m17 -21 c-2 -7
-10 -12 -16 -10 -7 1 -9 -2 -6 -8 4 -6 13 -9 20 -6 14 5 45 -23 45 -42 0 -6 9
-17 19 -24 11 -8 27 -32 36 -53 10 -22 22 -48 27 -58 10 -21 3 -37 -18 -37
-12 0 -19 19 -15 43 1 5 -3 6 -8 2 -18 -11 -43 54 -50 127 -1 4 -7 5 -14 2 -7
-2 -23 10 -36 27 -19 25 -21 33 -10 40 20 13 31 11 26 -3z m-1535 -130 c-6 -6
-12 -6 -16 1 -4 6 -2 11 3 11 6 0 12 8 12 18 1 15 2 15 6 -2 3 -10 0 -23 -5
-28z m-42 -68 c-18 -28 -33 -50 -34 -50 -2 0 -2 10 -1 23 1 12 -2 30 -7 41 -7
13 -6 21 2 26 9 6 9 9 -1 13 -10 4 -9 6 4 6 9 1 17 6 17 12 0 8 5 7 15 -1 13
-11 14 -10 9 6 -5 15 -3 14 11 -4 16 -22 15 -25 -15 -72z m1767 -71 c19 -64
11 -66 -13 -3 -12 31 -17 53 -11 51 7 -2 17 -23 24 -48z m-27 -24 c-7 -8 -10
-18 -6 -22 3 -3 6 0 6 8 1 19 15 -7 23 -42 6 -24 4 -26 -22 -25 -22 1 -27 5
-21 15 4 8 2 25 -6 39 -9 18 -10 30 -1 49 9 21 12 22 25 9 13 -12 13 -18 2
-31z m116 -120 c15 -27 30 -52 34 -55 14 -11 72 -102 67 -106 -6 -7 -57 40
-57 53 0 5 -9 19 -21 31 -11 12 -18 26 -15 30 2 4 -13 33 -35 64 -21 32 -39
61 -39 65 0 15 39 -34 66 -82z m-66 10 c4 3 13 -2 20 -10 11 -13 10 -14 -11
-7 -12 5 -24 14 -25 21 -1 6 0 7 3 1 2 -5 8 -8 13 -5z m51 -60 c9 -10 14 -26
11 -34 -3 -9 -1 -12 6 -7 7 4 17 -6 27 -23 17 -34 19 -51 5 -51 -5 0 -7 7 -4
15 4 10 0 15 -13 15 -19 0 -73 72 -73 97 0 18 21 12 41 -12z m-38 -19 c4 -10
1 -13 -9 -9 -15 6 -19 23 -5 23 5 0 11 -7 14 -14z m230 -122 c5 -16 12 -41 17
-56 5 -17 4 -30 -1 -34 -5 -3 -8 0 -7 7 2 7 -1 13 -7 14 -19 1 -33 15 -44 45
-6 18 -6 28 -1 25 6 -4 10 -1 10 5 0 6 5 8 13 4 7 -5 6 0 -3 11 -13 16 -13 18
0 13 8 -2 19 -18 23 -34z m-3121 -165 c5 -15 -7 -131 -27 -269 -9 -58 -15
-149 -13 -203 2 -56 -1 -97 -7 -97 -5 0 -4 -5 3 -12 7 -7 12 -17 12 -22 0 -6
-5 -4 -10 4 -8 12 -10 9 -10 -13 0 -16 4 -26 9 -23 5 4 4 -5 -2 -19 -7 -14
-17 -25 -24 -25 -8 0 -10 32 -7 118 9 256 13 312 26 334 9 15 13 59 12 131 0
95 2 107 17 107 10 0 19 -5 21 -11z m3309 -201 c8 -7 21 -21 28 -30 11 -15 11
-18 -2 -18 -9 0 -19 9 -22 20 -4 11 -11 17 -17 14 -6 -4 -8 -2 -4 4 3 5 0 13
-6 15 -7 3 -8 6 -2 6 5 1 17 -5 25 -11z m-941 -182 c0 -41 2 -45 26 -48 21 -2
33 -18 66 -80 l40 -78 -28 -34 c-23 -27 -34 -33 -54 -28 -14 3 -32 5 -41 5
-13 -1 -17 15 -23 89 -9 132 -8 218 4 218 6 0 10 -20 10 -44z m1016 -26 c3 0
0 9 -6 20 -7 14 -7 20 0 20 5 0 10 -7 10 -16 0 -9 5 -12 13 -8 6 4 9 4 5 0 -3
-4 -2 -21 2 -37 11 -37 2 -37 -53 1 -69 47 -80 65 -23 40 26 -11 50 -20 52
-20z m-3493 2 c3 -4 3 -37 0 -74 -6 -73 -13 -79 -71 -70 -20 3 -29 8 -25 16 5
8 3 8 -8 0 -16 -13 -67 -16 -74 -4 -6 10 78 115 103 129 20 12 69 14 75 3z
m-1127 -91 c-14 -14 -18 -14 -26 -2 -7 12 -11 12 -24 2 -12 -10 -16 -10 -16
-2 0 7 -4 9 -10 6 -5 -3 -10 -2 -10 2 0 5 23 9 51 10 47 1 50 0 35 -16z m1181
-207 c-3 -3 -12 -4 -19 -1 -8 3 -5 6 6 6 11 1 17 -2 13 -5z m-16 -47 c-10 -9
-11 -8 -5 6 3 10 9 15 12 12 3 -3 0 -11 -7 -18z m1450 -48 l24 -20 -30 17
c-39 24 -40 24 -28 24 6 0 21 -9 34 -21z m218 -124 c29 -77 45 -209 38 -310
-9 -122 -16 -145 -41 -145 -12 0 -26 -4 -31 -9 -8 -8 -96 11 -113 24 -12 9
-10 95 3 121 8 17 16 46 19 65 5 40 68 174 96 204 11 12 20 30 20 41 0 24 -55
114 -70 114 -5 0 -10 6 -10 13 1 27 69 -63 89 -118z m-287 37 l-22 -19 41 -13
c37 -13 39 -15 19 -22 -25 -9 -43 -2 -34 14 5 7 2 9 -7 6 -8 -3 -20 1 -27 8
-8 9 -9 14 -2 14 6 0 8 5 4 12 -4 6 -3 8 4 4 6 -3 13 -2 17 4 3 5 11 10 17 10
6 0 1 -8 -10 -18z m62 3 c4 -13 2 -14 -14 -5 -23 13 -26 20 -6 20 8 0 16 -7
20 -15z m-86 -82 c-10 -2 -26 -2 -35 0 -10 3 -2 5 17 5 19 0 27 -2 18 -5z
m-1260 -150 c-10 -2 -26 -2 -35 0 -10 3 -2 5 17 5 19 0 27 -2 18 -5z m-378
-58 c0 -24 -10 -32 -23 -18 -4 3 -1 13 6 21 10 13 9 14 -2 7 -10 -5 -12 -4 -7
3 12 20 26 13 26 -13z m175 -192 c-3 -13 -11 -23 -18 -20 -20 6 -20 47 0 69
l18 20 3 -22 c2 -12 1 -33 -3 -47z m2115 -53 c0 -5 -5 -10 -11 -10 -5 0 -7 5
-4 10 3 6 8 10 11 10 2 0 4 -4 4 -10z"/>
<path d="M2977 2493 c-2 -4 -3 -17 0 -28 2 -11 6 -37 10 -57 6 -38 32 -74 34
-47 0 8 2 24 3 37 2 13 -1 25 -6 28 -4 3 -8 16 -8 28 0 24 -25 53 -33 39z m30
-95 c-3 -8 -6 -5 -6 6 -1 11 2 17 5 13 3 -3 4 -12 1 -19z"/>
<path d="M2141 2754 c0 -11 3 -14 6 -6 3 7 2 16 -1 19 -3 4 -6 -2 -5 -13z"/>
<path d="M2365 2620 c4 -6 11 -8 16 -5 14 9 11 15 -7 15 -8 0 -12 -5 -9 -10z"/>
<path d="M2405 2600 c-25 -11 1 -11 35 0 20 6 21 8 5 8 -11 0 -29 -3 -40 -8z"/>
<path d="M3146 279 c2 -4 -2 -10 -8 -13 -7 -3 -4 -5 6 -3 23 2 33 24 12 24 -8
0 -13 -4 -10 -8z"/>
<path d="M2413 3013 c-15 -5 -17 -23 -4 -23 5 0 11 7 15 15 3 8 4 15 3 14 -1
0 -8 -3 -14 -6z"/>
<path d="M2738 2883 c7 -3 16 -2 19 1 4 3 -2 6 -13 5 -11 0 -14 -3 -6 -6z"/>
<path d="M4710 1643 c11 -23 20 -49 20 -58 0 -20 22 -15 28 6 3 11 2 11 -6 1
-7 -10 -11 -6 -15 15 -3 16 -15 40 -26 54 l-21 24 20 -42z"/>
<path d="M4970 1331 c0 -5 7 -14 15 -21 13 -10 15 -9 15 9 0 12 -6 21 -15 21
-8 0 -15 -4 -15 -9z"/>
<path d="M2190 870 c0 -5 5 -10 10 -10 6 0 10 5 10 10 0 6 -4 10 -10 10 -5 0
-10 -4 -10 -10z"/>
<path d="M1280 854 c0 -8 -4 -13 -9 -9 -5 3 -13 0 -17 -7 -4 -7 -4 -10 1 -6 4
4 14 3 22 -3 10 -9 13 -8 13 5 0 9 5 16 11 16 5 0 7 5 4 10 -9 15 -25 12 -25
-6z"/>
<path d="M2170 840 c-13 -8 -12 -10 3 -10 9 0 17 5 17 10 0 12 -1 12 -20 0z"/>
<path d="M1597 723 c18 -2 39 -13 46 -24 15 -21 47 -17 47 7 0 9 17 14 53 17
l52 3 -57 2 c-33 1 -58 -2 -58 -8 0 -5 -5 -10 -11 -10 -5 0 -7 5 -4 10 4 6
-14 9 -47 8 -36 -1 -42 -3 -21 -5z"/>
<path d="M2423 203 c9 -2 25 -2 35 0 9 3 1 5 -18 5 -19 0 -27 -2 -17 -5z"/>
</g>
</svg>
